<?xml version="1.0" encoding="utf-8"?>
<!-- Generator: Adobe Illustrator 21.1.0, SVG Export Plug-In . SVG Version: 6.00 Build 0)  -->
<svg version="1.1" id="Слой_1" xmlns="http://www.w3.org/2000/svg" xmlns:xlink="http://www.w3.org/1999/xlink" x="0px" y="0px"
	 viewBox="0 0 17 17" style="enable-background:new 0 0 17 17;" xml:space="preserve">
<style type="text/css">
	.st0{fill:#333333;}
	.st1{fill:#202020;}
	.st2{fill:#212121;}
	.st3{fill:#FEFEFE;}
	.st4{fill:#1F1F1F;}
</style>
<g>
	<path class="st0" d="M15.9,9.2c-0.1,1.5-0.7,2.8-1.6,4c-1.3,1.6-2.9,2.5-5,2.8c-1,0.1-1,0.1-1.6,0c-0.9-0.1-1.7-0.3-2.5-0.7
		c-2-1-3.4-2.6-4-4.9c-0.1-0.3-0.2-0.7-0.2-1c0.1-0.2,0-0.4,0-0.7c0,0-0.1,0,0,0c0,0,0,0,0,0c0,0.1,0,0.2,0,0.2C1,8.6,1,8.4,1.1,8.1
		c0.1,0.1,0.1,0.2,0,0.2c0-0.2,0-0.4,0-0.6c0.1-1.1,0.5-2.1,1-3C3,3.1,4.4,2,6.1,1.4c0.5-0.2,1-0.3,1.5-0.3c0.2,0.1,0.4,0,0.7,0
		c0,0,0-0.1,0,0c0,0,0,0,0,0c-0.1,0-0.2,0-0.2,0C8.4,1,8.6,1,8.9,1.1c-0.1,0.1-0.2,0-0.2,0c0.2,0,0.4,0,0.6,0
		c1.6,0.2,2.9,0.8,4.1,1.8C14,3.4,14.5,4,14.9,4.6c0.6,0.9,1,2,1,3.1c0,0,0,0.1,0,0.1c0,0.2,0,0.3,0,0.5c0-0.1,0-0.2,0-0.3
		c0.1,0.3,0.1,0.6,0,0.8c-0.1-0.1-0.1-0.1,0-0.2C15.9,8.9,15.9,9,15.9,9.2z"/>
	<path class="st1" d="M8.1,1.1c0.1,0,0.2,0,0.2,0c-0.2,0-0.4,0.1-0.7,0C7.8,1.1,7.9,1.1,8.1,1.1z"/>
	<path class="st1" d="M9.3,1.1c-0.2,0.1-0.4,0-0.7,0c0.1,0,0.2,0,0.2,0C9.1,1.1,9.2,1.1,9.3,1.1z"/>
	<path class="st1" d="M1.1,7.7c0.1,0.2,0,0.4,0,0.7c0-0.1,0-0.2,0-0.2C1.1,7.9,1.1,7.8,1.1,7.7z"/>
	<path class="st1" d="M1.1,8.9c0-0.1,0-0.2,0-0.2c0,0.2,0.1,0.4,0,0.7C1.1,9.2,1.1,9.1,1.1,8.9z"/>
	<path class="st2" d="M15.9,8.1c0,0.1,0,0.2,0,0.2c0-0.2-0.1-0.4,0-0.6C15.9,7.9,15.9,8,15.9,8.1z"/>
	<path class="st2" d="M15.9,9.2c-0.1-0.2,0-0.3,0-0.5c0,0.1,0,0.2,0,0.2C15.9,9,15.9,9.1,15.9,9.2z"/>
	<path class="st3" d="M7.9,13.1c-0.9-0.4-1.1-0.7-1-1.7c0.1-0.8,0.5-1.6,0.6-2.4c0-0.1,0-0.1,0-0.2c0-0.2,0-0.3,0-0.5
		c0-0.2-0.1-0.3-0.3-0.3c-0.2,0-0.8,0.3-1,0.1C6.2,7.8,6.2,7.6,6.4,7.5C7.1,7.1,7.8,6.9,8.5,7C9,7.1,9.4,7.5,9.6,8
		c0.1,0.2,0.1,0.4,0,0.6c-0.2,0.9-0.5,1.8-0.7,2.7c-0.2,0.9,0.1,1.2,1,1c0.1,0,0.2-0.1,0.3,0c-0.1,0.8-1.1,0.9-1.4,0.9
		C8.5,13.2,8.1,13.2,7.9,13.1z"/>
	<path class="st3" d="M8.9,6C8.4,5.9,8.1,5.6,8,5c0-0.5,0.3-1,0.9-1.1c0.7-0.1,1.2,0.1,1.4,0.8c0.2,0.5-0.1,1-0.7,1.3
		C9.5,6,9.5,6,9.4,6C9.2,6.1,9.1,6.1,8.9,6z"/>
	<path class="st1" d="M9.6,8.5c0-0.2,0-0.4,0-0.6C9.7,8.2,9.7,8.3,9.6,8.5z"/>
	<path class="st4" d="M7.6,8.2c0,0.2,0,0.3,0,0.5C7.5,8.5,7.5,8.3,7.6,8.2z"/>
</g>
</svg>
